<svg width="133" height="144" viewBox="0 0 133 144" fill="none" xmlns="http://www.w3.org/2000/svg">
<path d="M108 61.408V111.343H26V61.408H27.7073C31.7779 61.408 35.5515 59.2723 37.6846 55.8528C51.2505 34.1062 83.1445 34.0215 96.3403 55.7881C98.4555 59.2771 102.239 61.408 106.319 61.408H108Z" fill="white" stroke="black" stroke-width="8"/>
<rect x="4" y="71.2027" width="125" height="68.7973" fill="white" stroke="black" stroke-width="8"/>
<path d="M30.6307 104.727C30.6307 106.313 30.33 107.663 29.7287 108.776C29.1321 109.888 28.3177 110.738 27.2855 111.325C26.258 111.908 25.1027 112.199 23.8196 112.199C22.527 112.199 21.367 111.905 20.3395 111.318C19.312 110.731 18.5 109.881 17.9034 108.768C17.3068 107.656 17.0085 106.309 17.0085 104.727C17.0085 103.141 17.3068 101.792 17.9034 100.679C18.5 99.5663 19.312 98.7187 20.3395 98.1364C21.367 97.5492 22.527 97.2557 23.8196 97.2557C25.1027 97.2557 26.258 97.5492 27.2855 98.1364C28.3177 98.7187 29.1321 99.5663 29.7287 100.679C30.33 101.792 30.6307 103.141 30.6307 104.727ZM27.5128 104.727C27.5128 103.7 27.3589 102.833 27.0511 102.128C26.7481 101.422 26.3196 100.887 25.7656 100.523C25.2116 100.158 24.563 99.9759 23.8196 99.9759C23.0762 99.9759 22.4276 100.158 21.8736 100.523C21.3196 100.887 20.8887 101.422 20.581 102.128C20.2779 102.833 20.1264 103.7 20.1264 104.727C20.1264 105.755 20.2779 106.621 20.581 107.327C20.8887 108.032 21.3196 108.567 21.8736 108.932C22.4276 109.296 23.0762 109.479 23.8196 109.479C24.563 109.479 25.2116 109.296 25.7656 108.932C26.3196 108.567 26.7481 108.032 27.0511 107.327C27.3589 106.621 27.5128 105.755 27.5128 104.727ZM38.065 112H32.9087V97.4545H38.1076C39.5707 97.4545 40.8301 97.7457 41.886 98.3281C42.9419 98.9058 43.7539 99.7367 44.3221 100.821C44.895 101.905 45.1815 103.203 45.1815 104.713C45.1815 106.228 44.895 107.53 44.3221 108.619C43.7539 109.708 42.9371 110.544 41.8718 111.126C40.8112 111.709 39.5423 112 38.065 112ZM35.984 109.365H37.9371C38.8462 109.365 39.6109 109.204 40.2312 108.882C40.8562 108.555 41.3249 108.051 41.6374 107.369C41.9547 106.683 42.1133 105.797 42.1133 104.713C42.1133 103.638 41.9547 102.76 41.6374 102.078C41.3249 101.396 40.8585 100.894 40.2383 100.572C39.618 100.25 38.8533 100.089 37.9442 100.089H35.984V109.365ZM60.826 104.727C60.826 106.313 60.5253 107.663 59.924 108.776C59.3274 109.888 58.513 110.738 57.4808 111.325C56.4534 111.908 55.2981 112.199 54.0149 112.199C52.7223 112.199 51.5623 111.905 50.5348 111.318C49.5073 110.731 48.6953 109.881 48.0987 108.768C47.5021 107.656 47.2038 106.309 47.2038 104.727C47.2038 103.141 47.5021 101.792 48.0987 100.679C48.6953 99.5663 49.5073 98.7187 50.5348 98.1364C51.5623 97.5492 52.7223 97.2557 54.0149 97.2557C55.2981 97.2557 56.4534 97.5492 57.4808 98.1364C58.513 98.7187 59.3274 99.5663 59.924 100.679C60.5253 101.792 60.826 103.141 60.826 104.727ZM57.7081 104.727C57.7081 103.7 57.5542 102.833 57.2464 102.128C56.9434 101.422 56.5149 100.887 55.9609 100.523C55.407 100.158 54.7583 99.9759 54.0149 99.9759C53.2715 99.9759 52.6229 100.158 52.0689 100.523C51.5149 100.887 51.084 101.422 50.7763 102.128C50.4732 102.833 50.3217 103.7 50.3217 104.727C50.3217 105.755 50.4732 106.621 50.7763 107.327C51.084 108.032 51.5149 108.567 52.0689 108.932C52.6229 109.296 53.2715 109.479 54.0149 109.479C54.7583 109.479 55.407 109.296 55.9609 108.932C56.5149 108.567 56.9434 108.032 57.2464 107.327C57.5542 106.621 57.7081 105.755 57.7081 104.727ZM75.9379 102.547H72.8271C72.7702 102.144 72.6542 101.787 72.479 101.474C72.3039 101.157 72.079 100.887 71.8043 100.665C71.5297 100.442 71.2125 100.272 70.8526 100.153C70.4975 100.035 70.1116 99.9759 69.695 99.9759C68.9421 99.9759 68.2863 100.163 67.7276 100.537C67.1689 100.906 66.7357 101.446 66.4279 102.156C66.1201 102.862 65.9663 103.719 65.9663 104.727C65.9663 105.764 66.1201 106.635 66.4279 107.341C66.7404 108.046 67.176 108.579 67.7347 108.939C68.2934 109.299 68.9397 109.479 69.6737 109.479C70.0856 109.479 70.4667 109.424 70.8171 109.315C71.1722 109.206 71.4871 109.048 71.7617 108.839C72.0363 108.626 72.2636 108.368 72.4435 108.065C72.6282 107.762 72.756 107.417 72.8271 107.028L75.9379 107.043C75.8574 107.71 75.6561 108.354 75.3342 108.974C75.0169 109.59 74.5884 110.142 74.0487 110.629C73.5136 111.112 72.8744 111.496 72.131 111.78C71.3924 112.059 70.5567 112.199 69.6239 112.199C68.3266 112.199 67.1665 111.905 66.1438 111.318C65.1258 110.731 64.3209 109.881 63.729 108.768C63.1419 107.656 62.8484 106.309 62.8484 104.727C62.8484 103.141 63.1467 101.792 63.7433 100.679C64.3398 99.5663 65.1495 98.7187 66.1722 98.1364C67.195 97.5492 68.3455 97.2557 69.6239 97.2557C70.4667 97.2557 71.248 97.3741 71.9677 97.6108C72.6921 97.8475 73.3337 98.1932 73.8924 98.6477C74.4511 99.0975 74.9057 99.6491 75.256 100.303C75.6112 100.956 75.8384 101.704 75.9379 102.547ZM80.3768 112H77.0813L82.1026 97.4545H86.0657L91.0799 112H87.7844L84.141 100.778H84.0273L80.3768 112ZM80.1708 106.283H87.9549V108.683H80.1708V106.283ZM92.8306 112V97.4545H98.5692C99.6725 97.4545 100.612 97.6652 101.389 98.0866C102.165 98.5033 102.757 99.0833 103.164 99.8267C103.576 100.565 103.782 101.418 103.782 102.384C103.782 103.349 103.574 104.202 103.157 104.94C102.741 105.679 102.137 106.254 101.346 106.666C100.56 107.078 99.6085 107.284 98.4911 107.284H94.8335V104.82H97.994C98.5858 104.82 99.0735 104.718 99.457 104.514C99.8453 104.306 100.134 104.019 100.324 103.655C100.518 103.286 100.615 102.862 100.615 102.384C100.615 101.901 100.518 101.479 100.324 101.119C100.134 100.755 99.8453 100.473 99.457 100.274C99.0688 100.071 98.5763 99.9688 97.9798 99.9688H95.9059V112H92.8306ZM106.607 112H103.312L108.333 97.4545H112.296L117.31 112H114.015L110.371 100.778H110.258L106.607 112ZM106.401 106.283H114.185V108.683H106.401V106.283Z" fill="black"/>
<circle cx="67" cy="45" r="5" fill="black"/>
<circle cx="124" cy="76" r="5" fill="black"/>
<circle cx="124" cy="135" r="5" fill="black"/>
<circle cx="9" cy="135" r="5" fill="black"/>
<circle cx="9" cy="76" r="5" fill="black"/>
</svg>
